# xmcd
#
# Track frame offsets: 
#        150
#        10152
#        21462
#        32792
#        45152
#        56815
#        69297
#        81110
#        93095
#        103555
#        116695
#        126552
#        142545
#        153452
#        164392
#        177525
#        190260
#        201125
#        212440
#        223002
#
# Disc length: 3146 seconds
#
# Revision: 6
# Processed by: cddbd v1.5.2PL0 Copyright (c) Steve Scherf et al.
# Submitted via: ExactAudioCopy v0.99pb5
#
DISCID=110c4814
DTITLE=John Lee Hooker - The John Lee Hooker Collection Volume Two
DYEAR=2001
DGENRE=Blues
TTITLE0=Dimples
TTITLE1=Boom, Boom
TTITLE2=This Is Hip
TTITLE3=I'm In The Mood
TTITLE4=I Love You Honey
TTITLE5=Crawlin' Kingsnake
TTITLE6=Boogie Chillun
TTITLE7=I'm Mad Again
TTITLE8=Big Legs, Tight Skirt
TTITLE9=I'm Going Upstairs
TTITLE10=Onions
TTITLE11=It Serves Me Right (To Suffer)
TTITLE12=Send Me Your Pillow
TTITLE13=No Shoes
TTITLE14=I'm So Exited
TTITLE15=Hobo Blues
TTITLE16=Maudie
TTITLE17=What Do You Say
TTITLE18=She's Mine (Keep Your Hands To Yourself)
TTITLE19=Don't Look Back
EXTD=YEAR: 2001
EXTT0=
EXTT1=
EXTT2=
EXTT3=
EXTT4=
EXTT5=
EXTT6=
EXTT7=
EXTT8=
EXTT9=
EXTT10=
EXTT11=
EXTT12=
EXTT13=
EXTT14=
EXTT15=
EXTT16=
EXTT17=
EXTT18=
EXTT19=
PLAYORDER=
